<mxfile host="app.diagrams.net" agent="Mozilla/5.0 (Windows NT 10.0; Win64; x64) AppleWebKit/537.36 (KHTML, like Gecko) Chrome/135.0.0.0 Safari/537.36" version="26.2.10">
  <diagram name="PÃ¡gina-1" id="jruf31YVxE62cTZQOUj8">
    <mxGraphModel grid="1" page="1" gridSize="10" guides="1" tooltips="1" connect="1" arrows="1" fold="1" pageScale="1" pageWidth="827" pageHeight="1169" math="0" shadow="0">
      <root>
        <mxCell id="0" />
        <mxCell id="1" parent="0" />
        <mxCell id="HXF5XVaUoNuY3JruX2CM-1" value="Camionero" style="rounded=0;whiteSpace=wrap;html=1;" vertex="1" parent="1">
          <mxGeometry x="205" y="100" width="70" height="30" as="geometry" />
        </mxCell>
        <mxCell id="HXF5XVaUoNuY3JruX2CM-2" value="Paquete" style="rounded=0;whiteSpace=wrap;html=1;" vertex="1" parent="1">
          <mxGeometry x="540" y="100" width="70" height="30" as="geometry" />
        </mxCell>
        <mxCell id="HXF5XVaUoNuY3JruX2CM-3" value="Camion" style="rounded=0;whiteSpace=wrap;html=1;" vertex="1" parent="1">
          <mxGeometry x="200" y="328" width="70" height="30" as="geometry" />
        </mxCell>
        <mxCell id="HXF5XVaUoNuY3JruX2CM-4" value="Provincia" style="rounded=0;whiteSpace=wrap;html=1;" vertex="1" parent="1">
          <mxGeometry x="540" y="285" width="70" height="30" as="geometry" />
        </mxCell>
        <mxCell id="HXF5XVaUoNuY3JruX2CM-6" value="&lt;u&gt;cedula&lt;/u&gt;" style="ellipse;whiteSpace=wrap;html=1;" vertex="1" parent="1">
          <mxGeometry x="230" y="30" width="60" height="30" as="geometry" />
        </mxCell>
        <mxCell id="HXF5XVaUoNuY3JruX2CM-7" value="nombre" style="ellipse;whiteSpace=wrap;html=1;" vertex="1" parent="1">
          <mxGeometry x="150" y="30" width="60" height="30" as="geometry" />
        </mxCell>
        <mxCell id="HXF5XVaUoNuY3JruX2CM-8" value="telefono" style="ellipse;whiteSpace=wrap;html=1;" vertex="1" parent="1">
          <mxGeometry x="80" y="50" width="60" height="30" as="geometry" />
        </mxCell>
        <mxCell id="HXF5XVaUoNuY3JruX2CM-9" value="direccion" style="ellipse;whiteSpace=wrap;html=1;" vertex="1" parent="1">
          <mxGeometry x="60" y="90" width="60" height="30" as="geometry" />
        </mxCell>
        <mxCell id="HXF5XVaUoNuY3JruX2CM-10" value="salario" style="ellipse;whiteSpace=wrap;html=1;" vertex="1" parent="1">
          <mxGeometry x="80" y="130" width="60" height="30" as="geometry" />
        </mxCell>
        <mxCell id="HXF5XVaUoNuY3JruX2CM-11" value="descripcion" style="ellipse;whiteSpace=wrap;html=1;" vertex="1" parent="1">
          <mxGeometry x="600" y="50" width="70" height="30" as="geometry" />
        </mxCell>
        <mxCell id="HXF5XVaUoNuY3JruX2CM-12" value="&lt;u&gt;codigo&lt;/u&gt;" style="ellipse;whiteSpace=wrap;html=1;" vertex="1" parent="1">
          <mxGeometry x="520" y="340" width="60" height="30" as="geometry" />
        </mxCell>
        <mxCell id="HXF5XVaUoNuY3JruX2CM-13" value="&lt;u&gt;matricula&lt;/u&gt;" style="ellipse;whiteSpace=wrap;html=1;" vertex="1" parent="1">
          <mxGeometry x="100" y="368" width="60" height="30" as="geometry" />
        </mxCell>
        <mxCell id="HXF5XVaUoNuY3JruX2CM-16" value="destinatario" style="ellipse;whiteSpace=wrap;html=1;" vertex="1" parent="1">
          <mxGeometry x="630" y="90" width="70" height="30" as="geometry" />
        </mxCell>
        <mxCell id="HXF5XVaUoNuY3JruX2CM-17" value="direccion_destinatario" style="ellipse;whiteSpace=wrap;html=1;" vertex="1" parent="1">
          <mxGeometry x="630" y="140" width="140" height="40" as="geometry" />
        </mxCell>
        <mxCell id="HXF5XVaUoNuY3JruX2CM-19" value="nombre" style="ellipse;whiteSpace=wrap;html=1;" vertex="1" parent="1">
          <mxGeometry x="600" y="340" width="60" height="30" as="geometry" />
        </mxCell>
        <mxCell id="HXF5XVaUoNuY3JruX2CM-20" value="modelo" style="ellipse;whiteSpace=wrap;html=1;" vertex="1" parent="1">
          <mxGeometry x="100" y="328" width="60" height="30" as="geometry" />
        </mxCell>
        <mxCell id="HXF5XVaUoNuY3JruX2CM-21" value="residencia" style="ellipse;whiteSpace=wrap;html=1;" vertex="1" parent="1">
          <mxGeometry x="120" y="170" width="60" height="30" as="geometry" />
        </mxCell>
        <mxCell id="HXF5XVaUoNuY3JruX2CM-22" value="&lt;u&gt;codigo&lt;/u&gt;" style="ellipse;whiteSpace=wrap;html=1;" vertex="1" parent="1">
          <mxGeometry x="520" y="50" width="60" height="30" as="geometry" />
        </mxCell>
        <mxCell id="HXF5XVaUoNuY3JruX2CM-23" value="tipo" style="ellipse;whiteSpace=wrap;html=1;" vertex="1" parent="1">
          <mxGeometry x="170" y="388" width="60" height="30" as="geometry" />
        </mxCell>
        <mxCell id="HXF5XVaUoNuY3JruX2CM-24" value="potencia" style="ellipse;whiteSpace=wrap;html=1;" vertex="1" parent="1">
          <mxGeometry x="240" y="388" width="60" height="30" as="geometry" />
        </mxCell>
        <mxCell id="HXF5XVaUoNuY3JruX2CM-27" value="conduce" style="rhombus;whiteSpace=wrap;html=1;" vertex="1" parent="1">
          <mxGeometry x="210" y="218" width="60" height="50" as="geometry" />
        </mxCell>
        <mxCell id="HXF5XVaUoNuY3JruX2CM-28" value="" style="endArrow=none;html=1;rounded=0;entryX=0.5;entryY=1;entryDx=0;entryDy=0;exitX=0.5;exitY=0;exitDx=0;exitDy=0;" edge="1" parent="1" source="HXF5XVaUoNuY3JruX2CM-27" target="HXF5XVaUoNuY3JruX2CM-1">
          <mxGeometry width="50" height="50" relative="1" as="geometry">
            <mxPoint x="390" y="200" as="sourcePoint" />
            <mxPoint x="440" y="150" as="targetPoint" />
          </mxGeometry>
        </mxCell>
        <mxCell id="HXF5XVaUoNuY3JruX2CM-42" value="1:N" style="edgeLabel;html=1;align=center;verticalAlign=middle;resizable=0;points=[];" connectable="0" vertex="1" parent="HXF5XVaUoNuY3JruX2CM-28">
          <mxGeometry x="0.192" y="1" relative="1" as="geometry">
            <mxPoint as="offset" />
          </mxGeometry>
        </mxCell>
        <mxCell id="HXF5XVaUoNuY3JruX2CM-29" value="" style="endArrow=none;html=1;rounded=0;entryX=0.5;entryY=1;entryDx=0;entryDy=0;exitX=0.571;exitY=0;exitDx=0;exitDy=0;exitPerimeter=0;" edge="1" parent="1" source="HXF5XVaUoNuY3JruX2CM-3" target="HXF5XVaUoNuY3JruX2CM-27">
          <mxGeometry width="50" height="50" relative="1" as="geometry">
            <mxPoint x="390" y="200" as="sourcePoint" />
            <mxPoint x="440" y="150" as="targetPoint" />
          </mxGeometry>
        </mxCell>
        <mxCell id="HXF5XVaUoNuY3JruX2CM-43" value="1:N" style="edgeLabel;html=1;align=center;verticalAlign=middle;resizable=0;points=[];" connectable="0" vertex="1" parent="HXF5XVaUoNuY3JruX2CM-29">
          <mxGeometry x="-0.0618" y="-1" relative="1" as="geometry">
            <mxPoint as="offset" />
          </mxGeometry>
        </mxCell>
        <mxCell id="HXF5XVaUoNuY3JruX2CM-30" value="llega" style="rhombus;whiteSpace=wrap;html=1;" vertex="1" parent="1">
          <mxGeometry x="542.5" y="185" width="65" height="40" as="geometry" />
        </mxCell>
        <mxCell id="HXF5XVaUoNuY3JruX2CM-31" value="" style="endArrow=none;html=1;rounded=0;exitX=0.5;exitY=1;exitDx=0;exitDy=0;startArrow=none;startFill=0;entryX=0.5;entryY=0;entryDx=0;entryDy=0;" edge="1" parent="1" source="HXF5XVaUoNuY3JruX2CM-2" target="HXF5XVaUoNuY3JruX2CM-30">
          <mxGeometry width="50" height="50" relative="1" as="geometry">
            <mxPoint x="390" y="200" as="sourcePoint" />
            <mxPoint x="540" y="170" as="targetPoint" />
          </mxGeometry>
        </mxCell>
        <mxCell id="HXF5XVaUoNuY3JruX2CM-40" value="1:1" style="edgeLabel;html=1;align=center;verticalAlign=middle;resizable=0;points=[];" connectable="0" vertex="1" parent="HXF5XVaUoNuY3JruX2CM-31">
          <mxGeometry x="-0.1927" y="-2" relative="1" as="geometry">
            <mxPoint as="offset" />
          </mxGeometry>
        </mxCell>
        <mxCell id="HXF5XVaUoNuY3JruX2CM-32" value="" style="endArrow=none;html=1;rounded=0;entryX=0.5;entryY=1;entryDx=0;entryDy=0;exitX=0.5;exitY=0;exitDx=0;exitDy=0;" edge="1" parent="1" source="HXF5XVaUoNuY3JruX2CM-4">
          <mxGeometry width="50" height="50" relative="1" as="geometry">
            <mxPoint x="574.5" y="280" as="sourcePoint" />
            <mxPoint x="574.5" y="225" as="targetPoint" />
          </mxGeometry>
        </mxCell>
        <mxCell id="HXF5XVaUoNuY3JruX2CM-39" value="1:N" style="edgeLabel;html=1;align=center;verticalAlign=middle;resizable=0;points=[];" connectable="0" vertex="1" parent="HXF5XVaUoNuY3JruX2CM-32">
          <mxGeometry x="0.0613" y="5" relative="1" as="geometry">
            <mxPoint as="offset" />
          </mxGeometry>
        </mxCell>
        <mxCell id="HXF5XVaUoNuY3JruX2CM-33" value="distribuye" style="rhombus;whiteSpace=wrap;html=1;" vertex="1" parent="1">
          <mxGeometry x="360" y="95" width="90" height="40" as="geometry" />
        </mxCell>
        <mxCell id="HXF5XVaUoNuY3JruX2CM-34" value="" style="endArrow=none;html=1;rounded=0;exitX=1;exitY=0.5;exitDx=0;exitDy=0;entryX=0;entryY=0.5;entryDx=0;entryDy=0;" edge="1" parent="1" source="HXF5XVaUoNuY3JruX2CM-1" target="HXF5XVaUoNuY3JruX2CM-33">
          <mxGeometry width="50" height="50" relative="1" as="geometry">
            <mxPoint x="390" y="200" as="sourcePoint" />
            <mxPoint x="440" y="150" as="targetPoint" />
          </mxGeometry>
        </mxCell>
        <mxCell id="HXF5XVaUoNuY3JruX2CM-36" value="1:N" style="edgeLabel;html=1;align=center;verticalAlign=middle;resizable=0;points=[];" connectable="0" vertex="1" parent="HXF5XVaUoNuY3JruX2CM-34">
          <mxGeometry x="-0.1012" y="-2" relative="1" as="geometry">
            <mxPoint as="offset" />
          </mxGeometry>
        </mxCell>
        <mxCell id="HXF5XVaUoNuY3JruX2CM-35" value="" style="endArrow=none;html=1;rounded=0;entryX=0;entryY=0.5;entryDx=0;entryDy=0;exitX=1;exitY=0.5;exitDx=0;exitDy=0;startArrow=none;startFill=0;endFill=1;" edge="1" parent="1" source="HXF5XVaUoNuY3JruX2CM-33" target="HXF5XVaUoNuY3JruX2CM-2">
          <mxGeometry width="50" height="50" relative="1" as="geometry">
            <mxPoint x="450" y="120" as="sourcePoint" />
            <mxPoint x="535" y="114.5" as="targetPoint" />
          </mxGeometry>
        </mxCell>
        <mxCell id="HXF5XVaUoNuY3JruX2CM-37" value="1:1" style="edgeLabel;html=1;align=center;verticalAlign=middle;resizable=0;points=[];" connectable="0" vertex="1" parent="HXF5XVaUoNuY3JruX2CM-35">
          <mxGeometry x="-0.1511" y="2" relative="1" as="geometry">
            <mxPoint as="offset" />
          </mxGeometry>
        </mxCell>
        <mxCell id="HXF5XVaUoNuY3JruX2CM-38" value="1:N" style="text;html=1;align=center;verticalAlign=middle;resizable=0;points=[];autosize=1;strokeColor=none;fillColor=none;" vertex="1" parent="1">
          <mxGeometry x="385" y="60" width="40" height="30" as="geometry" />
        </mxCell>
        <mxCell id="HXF5XVaUoNuY3JruX2CM-41" value="1:N" style="text;html=1;align=center;verticalAlign=middle;resizable=0;points=[];autosize=1;strokeColor=none;fillColor=none;" vertex="1" parent="1">
          <mxGeometry x="500" y="190" width="40" height="30" as="geometry" />
        </mxCell>
        <mxCell id="HXF5XVaUoNuY3JruX2CM-45" value="fecha" style="ellipse;whiteSpace=wrap;html=1;" vertex="1" parent="1">
          <mxGeometry x="320" y="233" width="60" height="20" as="geometry" />
        </mxCell>
        <mxCell id="HXF5XVaUoNuY3JruX2CM-47" value="" style="endArrow=none;html=1;rounded=0;entryX=0;entryY=0.5;entryDx=0;entryDy=0;exitX=1;exitY=0.5;exitDx=0;exitDy=0;" edge="1" parent="1" source="HXF5XVaUoNuY3JruX2CM-27" target="HXF5XVaUoNuY3JruX2CM-45">
          <mxGeometry width="50" height="50" relative="1" as="geometry">
            <mxPoint x="270" y="248" as="sourcePoint" />
            <mxPoint x="440" y="288" as="targetPoint" />
          </mxGeometry>
        </mxCell>
        <mxCell id="HXF5XVaUoNuY3JruX2CM-49" value="" style="endArrow=none;html=1;rounded=0;exitX=1;exitY=0.5;exitDx=0;exitDy=0;entryX=0;entryY=0.5;entryDx=0;entryDy=0;" edge="1" parent="1" source="HXF5XVaUoNuY3JruX2CM-20" target="HXF5XVaUoNuY3JruX2CM-3">
          <mxGeometry width="50" height="50" relative="1" as="geometry">
            <mxPoint x="390" y="300" as="sourcePoint" />
            <mxPoint x="440" y="250" as="targetPoint" />
          </mxGeometry>
        </mxCell>
        <mxCell id="HXF5XVaUoNuY3JruX2CM-50" value="" style="endArrow=none;html=1;rounded=0;exitX=1;exitY=0.5;exitDx=0;exitDy=0;" edge="1" parent="1" source="HXF5XVaUoNuY3JruX2CM-13">
          <mxGeometry width="50" height="50" relative="1" as="geometry">
            <mxPoint x="170" y="353" as="sourcePoint" />
            <mxPoint x="200" y="360" as="targetPoint" />
          </mxGeometry>
        </mxCell>
        <mxCell id="HXF5XVaUoNuY3JruX2CM-51" value="" style="endArrow=none;html=1;rounded=0;exitX=0.5;exitY=0;exitDx=0;exitDy=0;" edge="1" parent="1" source="HXF5XVaUoNuY3JruX2CM-23">
          <mxGeometry width="50" height="50" relative="1" as="geometry">
            <mxPoint x="170" y="353" as="sourcePoint" />
            <mxPoint x="220" y="360" as="targetPoint" />
          </mxGeometry>
        </mxCell>
        <mxCell id="HXF5XVaUoNuY3JruX2CM-52" value="" style="endArrow=none;html=1;rounded=0;exitX=0.5;exitY=1;exitDx=0;exitDy=0;entryX=0.5;entryY=0;entryDx=0;entryDy=0;" edge="1" parent="1" source="HXF5XVaUoNuY3JruX2CM-3" target="HXF5XVaUoNuY3JruX2CM-24">
          <mxGeometry width="50" height="50" relative="1" as="geometry">
            <mxPoint x="180" y="363" as="sourcePoint" />
            <mxPoint x="220" y="363" as="targetPoint" />
          </mxGeometry>
        </mxCell>
        <mxCell id="HXF5XVaUoNuY3JruX2CM-53" value="" style="endArrow=none;html=1;rounded=0;exitX=0.5;exitY=1;exitDx=0;exitDy=0;entryX=0.106;entryY=-0.04;entryDx=0;entryDy=0;entryPerimeter=0;" edge="1" parent="1" source="HXF5XVaUoNuY3JruX2CM-7" target="HXF5XVaUoNuY3JruX2CM-1">
          <mxGeometry width="50" height="50" relative="1" as="geometry">
            <mxPoint x="190" y="373" as="sourcePoint" />
            <mxPoint x="230" y="373" as="targetPoint" />
          </mxGeometry>
        </mxCell>
        <mxCell id="HXF5XVaUoNuY3JruX2CM-54" value="" style="endArrow=none;html=1;rounded=0;exitX=0.5;exitY=1;exitDx=0;exitDy=0;entryX=0.75;entryY=0;entryDx=0;entryDy=0;" edge="1" parent="1" source="HXF5XVaUoNuY3JruX2CM-6" target="HXF5XVaUoNuY3JruX2CM-1">
          <mxGeometry width="50" height="50" relative="1" as="geometry">
            <mxPoint x="200" y="383" as="sourcePoint" />
            <mxPoint x="180" y="240" as="targetPoint" />
          </mxGeometry>
        </mxCell>
        <mxCell id="HXF5XVaUoNuY3JruX2CM-55" value="" style="endArrow=none;html=1;rounded=0;exitX=1;exitY=1;exitDx=0;exitDy=0;entryX=0;entryY=0.25;entryDx=0;entryDy=0;" edge="1" parent="1" source="HXF5XVaUoNuY3JruX2CM-8" target="HXF5XVaUoNuY3JruX2CM-1">
          <mxGeometry width="50" height="50" relative="1" as="geometry">
            <mxPoint x="190" y="70" as="sourcePoint" />
            <mxPoint x="222" y="109" as="targetPoint" />
          </mxGeometry>
        </mxCell>
        <mxCell id="HXF5XVaUoNuY3JruX2CM-56" value="" style="endArrow=none;html=1;rounded=0;exitX=1;exitY=0.5;exitDx=0;exitDy=0;entryX=0;entryY=0.75;entryDx=0;entryDy=0;" edge="1" parent="1" source="HXF5XVaUoNuY3JruX2CM-9" target="HXF5XVaUoNuY3JruX2CM-1">
          <mxGeometry width="50" height="50" relative="1" as="geometry">
            <mxPoint x="200" y="80" as="sourcePoint" />
            <mxPoint x="200" y="119" as="targetPoint" />
          </mxGeometry>
        </mxCell>
        <mxCell id="HXF5XVaUoNuY3JruX2CM-58" value="" style="endArrow=none;html=1;rounded=0;exitX=1;exitY=0.5;exitDx=0;exitDy=0;" edge="1" parent="1" source="HXF5XVaUoNuY3JruX2CM-10">
          <mxGeometry width="50" height="50" relative="1" as="geometry">
            <mxPoint x="210" y="90" as="sourcePoint" />
            <mxPoint x="210" y="130" as="targetPoint" />
          </mxGeometry>
        </mxCell>
        <mxCell id="HXF5XVaUoNuY3JruX2CM-59" value="" style="endArrow=none;html=1;rounded=0;exitX=1;exitY=0;exitDx=0;exitDy=0;entryX=0.25;entryY=1;entryDx=0;entryDy=0;" edge="1" parent="1" source="HXF5XVaUoNuY3JruX2CM-21" target="HXF5XVaUoNuY3JruX2CM-1">
          <mxGeometry width="50" height="50" relative="1" as="geometry">
            <mxPoint x="220" y="100" as="sourcePoint" />
            <mxPoint x="252" y="139" as="targetPoint" />
          </mxGeometry>
        </mxCell>
        <mxCell id="HXF5XVaUoNuY3JruX2CM-60" value="" style="endArrow=none;html=1;rounded=0;exitX=0.5;exitY=1;exitDx=0;exitDy=0;entryX=0.25;entryY=0;entryDx=0;entryDy=0;" edge="1" parent="1" source="HXF5XVaUoNuY3JruX2CM-22" target="HXF5XVaUoNuY3JruX2CM-2">
          <mxGeometry width="50" height="50" relative="1" as="geometry">
            <mxPoint x="230" y="110" as="sourcePoint" />
            <mxPoint x="262" y="149" as="targetPoint" />
          </mxGeometry>
        </mxCell>
        <mxCell id="HXF5XVaUoNuY3JruX2CM-61" value="" style="endArrow=none;html=1;rounded=0;exitX=0;exitY=1;exitDx=0;exitDy=0;entryX=0.75;entryY=0;entryDx=0;entryDy=0;" edge="1" parent="1" source="HXF5XVaUoNuY3JruX2CM-11" target="HXF5XVaUoNuY3JruX2CM-2">
          <mxGeometry width="50" height="50" relative="1" as="geometry">
            <mxPoint x="560" y="90" as="sourcePoint" />
            <mxPoint x="568" y="110" as="targetPoint" />
          </mxGeometry>
        </mxCell>
        <mxCell id="HXF5XVaUoNuY3JruX2CM-62" value="" style="endArrow=none;html=1;rounded=0;exitX=0;exitY=0.5;exitDx=0;exitDy=0;" edge="1" parent="1" source="HXF5XVaUoNuY3JruX2CM-16">
          <mxGeometry width="50" height="50" relative="1" as="geometry">
            <mxPoint x="570" y="100" as="sourcePoint" />
            <mxPoint x="610" y="110" as="targetPoint" />
          </mxGeometry>
        </mxCell>
        <mxCell id="HXF5XVaUoNuY3JruX2CM-63" value="" style="endArrow=none;html=1;rounded=0;entryX=1;entryY=0.75;entryDx=0;entryDy=0;" edge="1" parent="1" source="HXF5XVaUoNuY3JruX2CM-17" target="HXF5XVaUoNuY3JruX2CM-2">
          <mxGeometry width="50" height="50" relative="1" as="geometry">
            <mxPoint x="640" y="115" as="sourcePoint" />
            <mxPoint x="620" y="120" as="targetPoint" />
          </mxGeometry>
        </mxCell>
        <mxCell id="HXF5XVaUoNuY3JruX2CM-64" value="" style="endArrow=none;html=1;rounded=0;exitX=0.5;exitY=0;exitDx=0;exitDy=0;entryX=0.5;entryY=1;entryDx=0;entryDy=0;" edge="1" parent="1" source="HXF5XVaUoNuY3JruX2CM-12" target="HXF5XVaUoNuY3JruX2CM-4">
          <mxGeometry width="50" height="50" relative="1" as="geometry">
            <mxPoint x="650" y="125" as="sourcePoint" />
            <mxPoint x="590" y="330" as="targetPoint" />
            <Array as="points" />
          </mxGeometry>
        </mxCell>
        <mxCell id="HXF5XVaUoNuY3JruX2CM-65" value="" style="endArrow=none;html=1;rounded=0;exitX=0.5;exitY=0;exitDx=0;exitDy=0;entryX=0.75;entryY=1;entryDx=0;entryDy=0;" edge="1" parent="1" source="HXF5XVaUoNuY3JruX2CM-19" target="HXF5XVaUoNuY3JruX2CM-4">
          <mxGeometry width="50" height="50" relative="1" as="geometry">
            <mxPoint x="560" y="350" as="sourcePoint" />
            <mxPoint x="585" y="325" as="targetPoint" />
            <Array as="points" />
          </mxGeometry>
        </mxCell>
        <mxCell id="HXF5XVaUoNuY3JruX2CM-66" value="N:M" style="text;html=1;align=center;verticalAlign=middle;resizable=0;points=[];autosize=1;strokeColor=none;fillColor=none;" vertex="1" parent="1">
          <mxGeometry x="160" y="228" width="50" height="30" as="geometry" />
        </mxCell>
      </root>
    </mxGraphModel>
  </diagram>
</mxfile>
